<?xml version="1.0" encoding="utf-8"?>
<?xml-stylesheet type="text/xsl" href="rss1.xsl"?>
<rss version="2.0" xmlns:atom="http://www.w3.org/2005/Atom" xmlns:content="http://purl.org/rss/1.0/modules/content/" xmlns:dc="http://purl.org/dc/elements/1.1/" xmlns:media="http://search.yahoo.com/mrss/">
<channel>
 <title>Getty</title>
 <link>http://www.gettyimg.com/</link>
 <atom:link href="http://www.gettyimg.com/" rel="self" type="application/rss+xml" />

 
                <item>
                <title><![CDATA[【Requests】[REQ AUD] - Depeche Mode – Speak To Me (HI-LO Remix) / (HI-LO Extended Remix)]]></title>
                <link><![CDATA[https://sharemania.us/threads/depeche-mode-%E2%80%93-speak-to-me-hi-lo-remix-hi-lo-extended-remix.226282/]]></link>
                <description><![CDATA[<article>
<blockquote class="messageText SelectQuoteContainer ugc baseHtml">
Does anyone have this in FLAC?
<div class="messageTextEndMarker">&nbsp;</div>
</blockquote>
</article>]]></description>
                <author><![CDATA[PORTISHEAD]]></author>
                </item>

                
                <item>
                <title><![CDATA[【Singles (lossless)】FLAC - Treasure - Beautiful [FLAC, 32-bit/48kHz, 2,3Mbps]]]></title>
                <link><![CDATA[https://sharemania.us/threads/treasure-beautiful-flac-32-bit-48khz-2-3mbps.226280/]]></link>
                <description><![CDATA[<article>
<blockquote class="messageText SelectQuoteContainer ugc baseHtml">
<img src="https://is1-ssl.mzstatic.com/image/thumb/Music124/v4/94/ed/a1/94eda186-4be7-636f-9e99-c7d987130830/ANTCD-A0000003587.jpg/632x632bb.webp" class="bbCodeImage LbImage" alt="[​IMG]" data-url="https://is1-ssl.mzstatic.com/image/thumb/Music124/v4/94/ed/a1/94eda186-4be7-636f-9e99-c7d987130830/ANTCD-A0000003587.jpg/632x632bb.webp" style=""><br>
<br>
Tracklist:<br>
1. Beuatiful<br>
<br>
Artist: Treasure<br>
Album: Beautiful - Single <br>
Format: [FLAC, 32-bit/48kHz, 2,3Mbps]<br>
Source: Apple Music<br>
<br>
<div class="bbCodeBlock bbCodeVfcHH HiddenContent">
<div class="attribution type">Hidden Content:</div>
<blockquote>You must either reply or click 'Like' to see the hidden information contained here.</blockquote>
</div>
<div class="messageTextEndMarker">&nbsp;</div>
</blockquote>
</article>]]></description>
                <author><![CDATA[hilmanjaeni]]></author>
                </item>

                
                <item>
                <title><![CDATA[【Cinema Center】MOVIE - Ghost.Town.2009.1080p.HULU.WEB-DL.AAC2.0.H.264-Samuel]]></title>
                <link><![CDATA[https://sharemania.us/threads/ghost-town-2009-1080p-hulu-web-dl-aac2-0-h-264-samuel.226281/]]></link>
                <description><![CDATA[<article>
<blockquote class="messageText SelectQuoteContainer ugc baseHtml">
<div style="text-align: center"><b><span style="font-size: 26px">Ghost Town</span></b><br>
<img src="https://i.imgur.com/3Ogume4.jpg" class="bbCodeImage LbImage" alt="[​IMG]" data-url="https://i.imgur.com/3Ogume4.jpg" style=""><br>
<b><a href="https://i.imgur.com/rOYvMmx.jpg" target="_blank" class="externalLink" rel="nofollow">Screenshot</a></b><br>
<br>
<b>Starring:</b> Jessica Rose, Billy Drago, Randy Wayne • <b>Director:</b> Todor Chapkanov<br>
<br>
<div class="bbCodeBlock bbCodeQuote">
<aside>
<blockquote class="quoteContainer"><div class="quote"><b><span style="font-size: 15px"><span style="font-family: 'Arial'">Description</span></span></b><br>
The ghosts of a devil-worshipping cowboy (Billy Drago) and his men terrorize a group of students stranded in an abandoned frontier town.</div><div class="quoteExpand">Click to expand...</div></blockquote>
</aside>
</div>
<div class="bbCodeBlock bbCodeQuote">
<aside>
<blockquote class="quoteContainer"><div class="quote"><b><span style="font-size: 15px"><span style="font-family: 'Arial'">More Information</span></span></b><br>
<b>Starring:</b> Jessica Rose, Billy Drago, Randy Wayne, Gil Gerard, Cian Barry<br>
<b>Director:</b> Todor Chapkanov<br>
<br>
TV14 • Horror • Movie • 2009 • 1h 27m</div><div class="quoteExpand">Click to expand...</div></blockquote>
</aside>
</div>
<div class="bbCodeBlock bbCodeQuote">
<aside>
<blockquote class="quoteContainer"><div class="quote"><b><span style="font-size: 15px">Source</span></b><br>
<img src="https://i.imgur.com/4uiLEFv.png" class="bbCodeImage LbImage" alt="[​IMG]" data-url="https://i.imgur.com/4uiLEFv.png" style=""></div><div class="quoteExpand">Click to expand...</div></blockquote>
</aside>
</div>
<div class="bbCodeBlock bbCodeQuote">
<aside>
<blockquote class="quoteContainer"><div class="quote"><b><span style="font-size: 15px">Release Name</span></b><br>
Ghost.Town.2009.1080p.HULU.WEB-DL.AAC2.0.H.264-Samuel</div><div class="quoteExpand">Click to expand...</div></blockquote>
</aside>
</div>
<div class="ToggleTriggerAnchor bbCodeSpoilerContainer">
<button type="button" class="button bbCodeSpoilerButton ToggleTrigger Tooltip JsOnly" data-target="> .SpoilerTarget"><span>Spoiler: <span class="SpoilerTitle">Media Information</span></span></button>
<div class="SpoilerTarget bbCodeSpoilerText">General<br>
Complete name : Ghost.Town.2009.1080p.HULU.WEB-DL.AAC2.0.H.264-Samuel.mkv<br>
Format : Matroska<br>
Format version : Version 4<br>
File size : 3.63 GiB<br>
Duration : 1 h 26 min<br>
Overall bit rate : 5 988 kb/s<br>
Frame rate : 23.976 FPS<br>
Encoded date : 2023-06-17 14:17:33 UTC<br>
Writing application : mkvmerge v72.0.0 ('Minuano (Six-eight)') 64-bit<br>
Writing library : libebml v1.4.4 + libmatroska v1.7.1<br>
<br>
Video<br>
ID : 1<br>
Format : AVC<br>
Format/Info : Advanced Video Codec<br>
Format profile : High@L4<br>
Format settings : CABAC / 4 Ref Frames<br>
Format settings, CABAC : Yes<br>
Format settings, Reference frames : 4 frames<br>
Codec ID : V_MPEG4/ISO/AVC<br>
Duration : 1 h 26 min<br>
Bit rate : 5 922 kb/s<br>
Width : 1 920 pixels<br>
Height : 1 080 pixels<br>
Display aspect ratio : 16:9<br>
Frame rate mode : Constant<br>
Frame rate : 23.976 (24000/1001) FPS<br>
Color space : YUV<br>
Chroma subsampling : 4:2:0<br>
Bit depth : 8 bits<br>
Scan type : Progressive<br>
Bits/(Pixel*Frame) : 0.119<br>
Stream size : 3.59 GiB (99%)<br>
Default : Yes<br>
Forced : No<br>
<br>
Audio<br>
ID : 2<br>
Format : AAC LC SBR<br>
Format/Info : Advanced Audio Codec Low Complexity with Spectral Band Replication<br>
Commercial name : HE-AAC<br>
Format settings : Explicit<br>
Codec ID : A_AAC-2<br>
Duration : 1 h 26 min<br>
Bit rate : 64.0 kb/s<br>
Channel(s) : 2 channels<br>
Channel layout : L R<br>
Sampling rate : 48.0 kHz<br>
Frame rate : 23.438 FPS (2048 SPF)<br>
Compression mode : Lossy<br>
Stream size : 39.7 MiB (1%)<br>
Language : English<br>
Default : Yes<br>
Forced : No<br>
<br>
Text<br>
ID : 3<br>
Format : UTF-8<br>
Codec ID : S_TEXT/UTF8<br>
Codec ID/Info : UTF-8 Plain Text<br>
Duration : 1 h 26 min<br>
Bit rate : 56 b/s<br>
Frame rate : 0.231 FPS<br>
Count of elements : 1192<br>
Stream size : 35.8 KiB (0%)<br>
Language : English<br>
Default : No<br>
Forced : No</div>
</div><br>
<b>Screenshots</b><br>
<img src="https://i.imgur.com/oU8ctTQ.png" class="bbCodeImage LbImage" alt="[​IMG]" data-url="https://i.imgur.com/oU8ctTQ.png" style=""><br>
<br>
<b>Download</b><br>
<div class="bbCodeBlock bbCodeVfcHH HiddenContent">
<div class="attribution type">Hidden Content:</div>
<blockquote>You must reply before you can see the hidden data contained here.</blockquote>
</div></div>
<div class="messageTextEndMarker">&nbsp;</div>
</blockquote>
</article>]]></description>
                <author><![CDATA[Samuel]]></author>
                </item>

                </channel></rss>